<?xml version="1.0" encoding="UTF-8"?>
<svg version="1.1" viewBox="0 0 800 800" width="200" height="200" xmlns="http://www.w3.org/2000/svg">
  <path transform="translate(349,39) scale(1.2, 1)" fill="#fff" d="m0 0h98l30 2 19 3 25 7 24 10 15 8 17 11 16 12 16 15 12 13 12 16 11 18 8 15 8 20 7 24 4 22 1 10v40l-4 26-7 24-9 23-12 22-7 10v5l8 13 11 23 6 15 7 24 5 23 3 26v37l-2 21-5 25-7 23-8 21-8 17-12 20-8 12-13 17-16 17-13 13-13 10-10 5-12 3h-294l-9-2-12-6-13-11-25-25-11-14-11-15-9-15-12-23-10-25-7-25-4-20-2-16-1-14v-22l2-23 4-23 6-23 7-20 8-18 11-21 4-6-1-5-10-16-8-16-8-19-6-20-4-20-2-16v-31l3-25 5-22 7-21 9-20 11-19 10-14 7-9 12-13 13-13 14-11 18-12 18-10 19-8 18-6 24-5 15-2zm8 24-22 1-26 4-21 6-16 6-19 10-14 9-14 11-12 11-12 12-14 19-11 18-9 20-7 21-4 17-2 15-1 13v20l3 24 5 20 7 20 12 24 13 19 5 7-4 7-13 21-13 27-8 24-5 21-3 16-1 10v43l3 22 4 19 10 30 12 25 10 17 10 14 13 16 16 17 14 12 8 4 4 1h290l8-3 9-7 12-11 10-10v-2h2l9-11 10-13 12-19 8-15 8-19 8-24 5-23 3-26v-33l-4-29-7-28-9-24-10-21-13-21-3-4 2-6 7-8 12-20 8-16 8-21 6-25 2-14v-36l-3-22-6-23-7-18-8-17-12-19-11-14-12-13-13-12-18-13-17-10-17-8-24-8-25-5-8-1-20-1z"/>
  <path transform="translate(343,144) scale(1.2, 1)" fill="#fff" d="m0 0h114l16 2 17 5 17 8 12 8 10 8 11 11 10 14 8 15 6 17 3 14 1 8v21l-3 17-6 18-10 19-4 6-5-2-20-12-16-8-18-8-26-8-25-5-21-2h-32l-24 3-23 5-24 8-20 9-19 10-13 9h-3l-8-13-7-15-5-16-2-10-1-10v-11l3-22 7-21 9-17 10-13 9-10 15-12 14-8 14-6 19-5zm3 24-14 2-16 5-15 8-10 8-8 7-8 10-8 14-6 16-3 15v22l4 18 2 7 6-1 19-10 17-7 26-8 23-5 24-3h40l25 3 24 5 25 8 26 11 15 8 3-1 5-16 2-13v-13l-3-19-5-14-8-15-9-11-10-10-14-9-15-7-16-4-8-1z"/>
</svg>
